<svg width="37" height="37" viewBox="0 0 37 37" fill="none" xmlns="http://www.w3.org/2000/svg">
<g clip-path="url(#clip0_1_119)">
<path d="M29.2916 21.5834V9.25002C29.2916 7.55419 27.9041 6.16669 26.2083 6.16669H4.62496C2.92913 6.16669 1.54163 7.55419 1.54163 9.25002V21.5834C1.54163 23.2792 2.92913 24.6667 4.62496 24.6667H26.2083C27.9041 24.6667 29.2916 23.2792 29.2916 21.5834ZM26.2083 21.5834H4.62496V9.25002H26.2083V21.5834ZM15.4166 10.7917C12.8575 10.7917 10.7916 12.8575 10.7916 15.4167C10.7916 17.9759 12.8575 20.0417 15.4166 20.0417C17.9758 20.0417 20.0416 17.9759 20.0416 15.4167C20.0416 12.8575 17.9758 10.7917 15.4166 10.7917ZM35.4583 10.7917V27.75C35.4583 29.4459 34.0708 30.8334 32.375 30.8334H6.16663C6.16663 29.2917 6.16663 29.4459 6.16663 27.75H32.375V10.7917C34.0708 10.7917 33.9166 10.7917 35.4583 10.7917Z" fill="#FED600"/>
</g>
<defs>
<clipPath id="clip0_1_119">
<rect width="37" height="37" fill="white"/>
</clipPath>
</defs>
</svg>
